# xmcd
#
# Track frame offsets: 
#        150
#        29470
#        56445
#        90365
#        114514
#        129290
#        158858
#        188410
#        205744
#
# Disc length: 3223 seconds
#
# Revision: 1
# Processed by: cddbd v1.5.2PL0 Copyright (c) Steve Scherf et al.
# Submitted via: ExactAudioCopy v0.99pb5
#
DISCID=660c9509
DTITLE=Various Artist - Body Art of Relaxation
DYEAR=1999
DGENRE=Merengue
TTITLE0=Cradled by Your Warmth by S, Pasero and M. Becker
TTITLE1=Arran Ghelbee by Cliona Ni Dhuill
TTITLE2=Pinnacles by S. Pasero and M. Becker
TTITLE3=Sicilienne by Antar Sudananda
TTITLE4=Silent O'Moyle By Anna-Maria O'Farrell
TTITLE5=Rivers Run Deep by S, Pasero and M. Becker
TTITLE6=Bi a Losa im Chroise by Cliona Ni Dhulli
TTITLE7=Waterfall Creek by David Hubbard
TTITLE8=Afro Cuban Lullaby arr. Richard Patterson
EXTD=YEAR: 1999
EXTT0=
EXTT1=
EXTT2=
EXTT3=
EXTT4=
EXTT5=
EXTT6=
EXTT7=
EXTT8=
PLAYORDER=
